<?xml version="1.0" encoding="UTF-8"?>
<svg id="Capa_1" data-name="Capa 1" xmlns="http://www.w3.org/2000/svg" viewBox="0 0 124 117">
  <defs>
    <style>
      .cls-1 {
        fill: #0d025a;
      }

      .cls-2 {
        fill: #dfff7d;
      }
    </style>
  </defs>
  <ellipse class="cls-1" cx="62" cy="58.5" rx="53" ry="53.57"/>
  <g>
    <path class="cls-2" d="M48.89,33.97c8.27.47,17.79-.89,25.92-.04,6.92.72,11.42,6.71,11.89,13.36.44,6.24.36,15.39,0,21.68-.44,7.58-4.37,13.01-12.12,14.16-8.23-.53-17.38.72-25.5,0-6.02-.54-11.05-5.69-11.86-11.6.49-8.28-.66-17.32-.01-25.52.49-6.23,5.55-11.25,11.69-12.04ZM49.14,38.3c-3.79.51-7.12,3.96-7.56,7.74-.9,7.74.62,17.06-.02,24.97.64,4.07,3.72,7.08,7.78,7.78,8.01-.58,17.11.77,25,0,3.64-.36,7.38-3.83,7.78-7.52.86-7.94-.65-17.4,0-25.51-.69-3.86-3.74-6.69-7.55-7.5-7.95.67-17.68-1-25.42.04Z"/>
    <path class="cls-2" d="M75.35,58.54c0,7.43-6.02,13.45-13.45,13.45s-13.45-6.02-13.45-13.45,6.02-13.45,13.45-13.45,13.45,6.02,13.45,13.45ZM70.69,58.58c0-4.88-3.96-8.84-8.84-8.84s-8.84,3.96-8.84,8.84,3.96,8.84,8.84,8.84,8.84-3.96,8.84-8.84Z"/>
    <circle class="cls-2" cx="75.1" cy="45.35" r="2.88"/>
  </g>
</svg>