<?xml version="1.0" encoding="UTF-8"?>
<svg id="Capa_1" data-name="Capa 1" xmlns="http://www.w3.org/2000/svg" viewBox="0 0 365 128">
  <defs>
    <style>
      .cls-1 {
        opacity: .15;
      }

      .cls-2 {
        fill: #c6c6c6;
      }
    </style>
  </defs>
  <g class="cls-1">
    <g>
      <path class="cls-2" d="M17.52,111.48c-1.78,0-3.28-.61-4.5-1.82-1.21-1.22-1.82-2.71-1.82-4.5V22.84c0-1.87.61-3.38,1.82-4.56,1.22-1.17,2.72-1.76,4.5-1.76h22.01c6.97,0,13.32,1.16,19.03,3.47,5.72,2.31,10.68,5.59,14.9,9.85,4.21,4.25,7.46,9.26,9.73,15.02,2.27,5.75,3.4,12.12,3.4,19.09s-1.14,13.36-3.4,19.15c-2.27,5.8-5.51,10.82-9.73,15.08-4.22,4.25-9.18,7.54-14.9,9.85-5.71,2.31-12.06,3.47-19.03,3.47h-22.01ZM23.84,100.29h15.69c6.81,0,12.83-1.56,18.06-4.68,5.23-3.12,9.34-7.42,12.34-12.89,3-5.47,4.5-11.74,4.5-18.79s-1.5-13.42-4.5-18.85c-3-5.43-7.11-9.69-12.34-12.77-5.23-3.08-11.25-4.62-18.06-4.62h-15.69v72.59Z"/>
      <path class="cls-2" d="M145.05,112.7c-7.13,0-13.66-1.2-19.58-3.59-5.92-2.39-11-5.75-15.26-10.09-4.25-4.34-7.56-9.49-9.91-15.44-2.35-5.96-3.53-12.5-3.53-19.64s1.17-13.66,3.53-19.58c2.35-5.92,5.66-11.04,9.91-15.38,4.26-4.34,9.34-7.7,15.26-10.09,5.92-2.39,12.44-3.59,19.58-3.59s13.64,1.2,19.52,3.59c5.88,2.39,10.96,5.76,15.26,10.09,4.3,4.34,7.62,9.46,9.97,15.38,2.35,5.92,3.53,12.45,3.53,19.58s-1.18,13.68-3.53,19.64c-2.35,5.96-5.67,11.11-9.97,15.44-4.3,4.34-9.38,7.7-15.26,10.09-5.88,2.39-12.38,3.59-19.52,3.59ZM145.05,101.27c5.27,0,10.11-.95,14.53-2.86,4.42-1.91,8.25-4.54,11.49-7.9,3.24-3.36,5.73-7.32,7.48-11.86,1.74-4.54,2.62-9.44,2.62-14.71s-.87-10.17-2.62-14.71c-1.74-4.54-4.24-8.49-7.48-11.85-3.24-3.36-7.07-5.98-11.49-7.84-4.42-1.87-9.26-2.8-14.53-2.8s-10.11.93-14.53,2.8c-4.42,1.87-8.23,4.48-11.43,7.84-3.2,3.37-5.7,7.32-7.48,11.85-1.78,4.54-2.67,9.44-2.67,14.71s.89,10.17,2.67,14.71c1.78,4.54,4.27,8.49,7.48,11.86,3.2,3.37,7.01,6,11.43,7.9,4.42,1.91,9.26,2.86,14.53,2.86Z"/>
      <path class="cls-2" d="M268.41,18.16c-1.09-1.09-2.49-1.64-4.2-1.64h-65.05c-1.7,0-3.1.55-4.2,1.64-1.09,1.09-1.64,2.49-1.64,4.2s.55,3.1,1.64,4.19c1.09,1.09,2.49,1.64,4.2,1.64h26.26v76.97c0,1.78.61,3.28,1.82,4.5,1.21,1.22,2.71,1.82,4.5,1.82s3.28-.61,4.5-1.82c1.22-1.22,1.82-2.71,1.82-4.5V28.19h26.14c1.7,0,3.1-.55,4.2-1.64,1.09-1.09,1.64-2.49,1.64-4.19s-.55-3.1-1.64-4.2Z"/>
      <path class="cls-2" d="M284.05,111.48c-1.84,0-3.3-.61-4.38-1.82-1.08-1.22-1.68-2.61-1.8-4.19-.12-1.58.3-2.98,1.26-4.2l58.68-73.56h-52.56c-2,0-3.5-.5-4.5-1.52-1-1.01-1.46-2.29-1.38-3.83-.08-1.7.48-3.1,1.68-4.2,1.2-1.09,2.68-1.64,4.44-1.64h61.92c1.84,0,3.32.57,4.44,1.7,1.12,1.14,1.76,2.49,1.92,4.07s-.28,2.98-1.32,4.19l-58.92,73.81h53.88c1.84,0,3.32.55,4.44,1.64,1.12,1.09,1.68,2.37,1.68,3.83,0,1.78-.56,3.18-1.68,4.19-1.12,1.02-2.6,1.52-4.44,1.52h-63.36Z"/>
    </g>
  </g>
</svg>