<?xml version="1.0" encoding="UTF-8"?>
<svg id="Capa_1" data-name="Capa 1" xmlns="http://www.w3.org/2000/svg" viewBox="0 0 209 212">
  <defs>
    <style>
      .cls-1 {
        fill: #fff;
      }

      .cls-2 {
        fill: #34bf98;
      }
    </style>
  </defs>
  <ellipse class="cls-2" cx="104.5" cy="106" rx="97.46" ry="98.51"/>
  <g>
    <path class="cls-1" d="M114.08,123.76c-.48,2.28-.47,6.13-1.28,8.19-.64,1.62-2.16.54-2.59,1.15l-.1,3.06c3.88-.15,8.03,2.26,9.14,6.07,5.27-1.61,10.34.93,11.92,6.21,4.39.63,8.27,3.24,9.83,7.48.52,1.4,1.42,4.43-.02,5.37-2.76,1.82-2.56-3.28-3.29-4.87-1.09-2.35-3.64-4.16-6.19-4.57-.94-.15-2.3.27-3.03-.48-.61-.62-.44-1.81-.68-2.59-.97-3.06-4.35-4.52-7.3-3.31-.99.41-1.41,1.27-2.66.88s-1.25-2.66-1.97-3.88c-1.56-2.66-4.84-3.68-7.7-2.54-1.13.45-2.89,2.26-3.56,2.31-.82.05-2.75-1.99-4.08-2.45-3.34-1.14-6.62.58-7.89,3.79-.39.98-.18,2.37-1.44,2.77-1.36.43-2.4-1.08-3.89-1.28-2.65-.35-5.25,1.15-6.07,3.72-.25.78-.08,1.97-.68,2.59-.73.75-2.09.33-3.03.48-3.33.53-6.13,3.17-6.87,6.46-.25,1.13.17,3.69-1.99,3.3-2.47-.45-1.03-4.84-.37-6.36,1.7-3.92,5.41-6.21,9.56-6.82,1.59-5.29,6.65-7.81,11.92-6.21,1.11-3.81,5.26-6.22,9.14-6.07l-.1-3.06c-.43-.61-1.95.47-2.59-1.15-.82-2.06-.8-5.91-1.28-8.19l-22.83-.21c-.59-.2-.93-.72-1.02-1.32-.23-1.49-.2-6.39-.02-7.94.06-.55.17-.9.58-1.29,5.31-3.22,10.76-7.84,13.81-13.32,2.8-5.03,1.44-8.28,1.75-13.69.56-9.7,4.26-20.14,9.87-28.03,1.07-1.51,5.73-7.54,7.34-7.64.82-.05,2.53,1.59,3.15,2.21,8.15,8.16,13.6,22.02,14.26,33.46.25,4.37-.81,8.42,1.08,12.48,2.78,5.96,8.97,11.14,14.48,14.53.32.29.5.65.57,1.07.21,1.36.21,6.8,0,8.16-.09.6-.43,1.12-1.02,1.32l-22.83.21ZM104.41,54.31c-15.6,15.88-17.17,40.21-9.68,60.39.31.83,2.02,5.23,2.39,5.56.78.69,12.37-.05,14.27.23.3,0,.4-.17.56-.38.64-.83,1.93-4.4,2.37-5.59,6.61-18.1,6.14-39.03-5.33-55.03-.54-.75-4.04-5.29-4.58-5.19ZM93.5,120.49c-2.44-5.93-4.68-12.05-5.38-18.48-1.37,1.42-2.32,3.19-3.62,4.68-2.8,3.21-6.52,6.26-10.18,8.42v5.38h19.18ZM134.67,120.49v-5.26c-3.65-2.41-7.3-5.23-10.18-8.53-1.3-1.49-2.25-3.26-3.62-4.68-.69,6.44-2.96,12.54-5.38,18.48h19.18ZM110.81,123.77h-12.63l.97,5.82h10.7s.97-5.82.97-5.82ZM106.83,132.89h-4.68v3.86l2.41,1.48,2.26-1.48v-3.86Z"/>
    <path class="cls-1" d="M94.85,151.66c1.18-.16,2.89-.31,3.09,1.25.28,2.18-1.92,1.78-3.23,2.13-1.38.36-2.6,1.67-3.13,2.96s-.22,3.35-1.77,3.63c-1.34.24-1.97-1.02-1.95-2.19.07-3.6,3.44-7.3,6.98-7.78Z"/>
    <path class="cls-1" d="M112.15,151.65c4.29-1.01,9.25,4.04,8.97,8.25-.1,1.5-1.75,2.39-2.83,1.18-.87-.98-.34-3.34-2.22-5.03-1.51-1.35-2.38-.82-3.87-1.27s-1.59-2.76-.05-3.12Z"/>
    <path class="cls-1" d="M113.96,87.01c0,5.23-4.24,9.47-9.47,9.47s-9.47-4.24-9.47-9.47,4.24-9.47,9.47-9.47,9.47,4.24,9.47,9.47ZM110.68,87.02c0-3.42-2.77-6.19-6.19-6.19s-6.19,2.77-6.19,6.19,2.77,6.19,6.19,6.19,6.19-2.77,6.19-6.19Z"/>
  </g>
</svg>