<?xml version="1.0" encoding="UTF-8"?>
<svg id="Capa_1" data-name="Capa 1" xmlns="http://www.w3.org/2000/svg" viewBox="0 0 17 17">
  <defs>
    <style>
      .cls-1 {
        fill: #34bf98;
      }
    </style>
  </defs>
  <path class="cls-1" d="M7.37,2.87c-3.11,0-5.63,2.52-5.63,5.63s2.52,5.63,5.63,5.63,5.63-2.52,5.63-5.63-2.52-5.63-5.63-5.63ZM7.37,13.58c-2.8,0-5.08-2.27-5.08-5.08S4.56,3.42,7.37,3.42s5.08,2.27,5.08,5.08-2.27,5.08-5.08,5.08Z"/>
  <circle class="cls-1" cx="3.18" cy="1.25" r=".75"/>
  <circle class="cls-1" cx="3.18" cy="15.75" r=".75"/>
  <circle class="cls-1" cx="15.74" cy="8.5" r=".75"/>
  <path class="cls-1" d="M1.07,8.5c0-1.87.82-3.55,2.11-4.7v-.72c-1.62,1.25-2.67,3.22-2.67,5.43s1.05,4.17,2.67,5.43v-.72c-1.3-1.15-2.11-2.83-2.11-4.7Z"/>
  <path class="cls-1" d="M7.37,14.8c-.69,0-1.36-.11-1.98-.32l-.63.36c.8.33,1.68.51,2.61.51,3.48,0,6.35-2.59,6.79-5.94l-.63.36c-.59,2.87-3.13,5.03-6.17,5.03Z"/>
  <path class="cls-1" d="M7.37,2.2c3.04,0,5.58,2.16,6.17,5.03l.63.36c-.45-3.35-3.32-5.94-6.79-5.94-.92,0-1.8.18-2.61.51l.63.36c.62-.21,1.29-.32,1.98-.32Z"/>
</svg>