<?xml version="1.0" encoding="UTF-8"?>
<svg id="Capa_1" data-name="Capa 1" xmlns="http://www.w3.org/2000/svg" viewBox="0 0 149 143">
  <defs>
    <style>
      .cls-1 {
        fill: #0d025a;
      }

      .cls-2 {
        fill: #dfff7d;
      }
    </style>
  </defs>
  <circle class="cls-2" cx="74.5" cy="71.5" r="63"/>
  <g>
    <path class="cls-1" d="M69.53,126.5c-.22-.47-.75-.64-.86-1.19-.22-1.14.26-6.04-.03-6.52-21.48-2.68-38.81-19.99-41.48-41.48-.47-.29-5.38.18-6.52-.03-.48-.09-.89-.6-1.14-1.01l.07-9.73c.3-.33.6-.77,1.07-.86,1.14-.22,6.05.26,6.52-.03,2.67-21.5,19.98-38.81,41.48-41.48.29-.47-.18-5.38.03-6.52.09-.48.53-.77.86-1.07l9.73-.07c.41.25.92.67,1.01,1.14.22,1.14-.26,6.05.03,6.52,21.53,2.65,38.8,19.99,41.48,41.48.48.3,5.38-.19,6.52.03.55.11.72.64,1.19.86v9.89c-.47.22-.64.75-1.19.86-1.14.22-6.04-.26-6.52.03-2.67,21.46-20,38.89-41.51,41.45v6.77c0,.09-.8.68-.86.97h-9.89ZM77.27,19.46h-5.59v6.56c0,.15-.54.87-.81.91-20.96,2.18-36.41,16.61-40.4,37.19-.18.95-.16,4.56-1.46,4.56h-6.56v5.59h6.56c1.3,0,1.27,3.6,1.46,4.56,3.64,18.78,16.69,32.58,35.58,36.43,1.18.24,3.99.37,4.82.77.27.13.81.7.81.91v6.56h5.59v-6.56c0-1.3,3.6-1.27,4.56-1.46,19.45-3.77,32.88-17.19,36.65-36.65.18-.95.16-4.56,1.46-4.56h6.56v-5.59h-6.56c-1.3,0-1.27-3.6-1.46-4.56-3.77-19.49-17.19-32.86-36.65-36.64-.98-.19-4.55-.18-4.55-1.46v-6.56Z"/>
    <path class="cls-1" d="M71.68,41.17h5.59v-7.42c0-1,1.79-.99,2.44-.94,15.8,1.12,32.3,17.63,33.42,33.42.05.65.07,2.44-.94,2.44h-7.42v5.59h7.42c1,0,.99,1.79.94,2.44-1.12,15.77-17.64,32.3-33.42,33.42-.65.05-2.44.07-2.44-.94v-7.42h-5.59v7.42c0,1.81-5.21.46-6.23.22-14.43-3.37-28.55-17.5-29.63-32.7-.05-.65-.07-2.44.94-2.44h7.42v-5.59h-7.42c-1,0-.99-1.79-.94-2.44,1.12-15.8,17.63-32.3,33.42-33.42.65-.05,2.44-.07,2.44.94v7.42ZM68.67,36.01c-14.97,2.27-27.39,14.7-29.66,29.66h7.2c.42,0,.89.77.95,1.2.27,1.7.19,6.98.02,8.81-.05.54-.31,1.6-.98,1.6h-7.2c2.27,14.99,14.7,27.36,29.66,29.66v-7.2c0-.66,1.07-.93,1.6-.98,1.83-.17,7.11-.25,8.81.02.42.07,1.2.53,1.2.95v7.2c14.97-2.28,27.38-14.69,29.66-29.66h-7.2c-.42,0-.89-.77-.95-1.2-.27-1.7-.19-6.98-.02-8.81.05-.54.31-1.6.98-1.6h7.2c-2.27-14.97-14.7-27.39-29.66-29.66v7.2c0,.42-.77.89-1.2.95-1.7.27-6.98.19-8.81.02-.54-.05-1.6-.31-1.6-.98v-7.2Z"/>
    <path class="cls-1" d="M75.74,55.91l2.69,8.27c.26.79.99,1.32,1.81,1.32h8.7c1.27,0,1.79,1.62.77,2.37l-7.03,5.11c-.67.49-.95,1.35-.69,2.13l2.69,8.27c.39,1.21-.99,2.21-2.01,1.46l-7.03-5.11c-.67-.49-1.57-.49-2.24,0l-7.03,5.11c-1.03.74-2.4-.26-2.01-1.46l2.69-8.27c.26-.79-.02-1.65-.69-2.13l-7.03-5.11c-1.03-.74-.5-2.37.77-2.37h8.7c.83,0,1.56-.53,1.81-1.32l2.69-8.27c.39-1.21,2.1-1.21,2.49,0Z"/>
  </g>
</svg>