<?xml version="1.0" encoding="UTF-8"?>
<svg id="Capa_1" data-name="Capa 1" xmlns="http://www.w3.org/2000/svg" viewBox="0 0 105 93">
  <defs>
    <style>
      .cls-1 {
        fill: #34bf98;
      }
    </style>
  </defs>
  <path class="cls-1" d="M20.81,79.06h-5.16c-3.35,0-6.88-3.12-7.22-6.46V12.34c.37-3.6,3.42-6.4,7.02-6.64h73.89c3.65.12,6.69,2.89,7.21,6.46v60.26c-.48,3.99-3.85,6.55-7.77,6.64h-46.88c-.26,0-.32.11-.44.3-.54.89-.8,3.85-1.72,4.27-1.6.73-2.91-2.12-4.19-2.7l-6.03,5.97c-.75.62-1.27.44-1.97-.09-2.23-1.67-4.32-4.76-6.57-6.54l-.18-1.23ZM11.06,11.97v10.2h82.88v-10.2c0-1.53-3.14-3.96-4.77-3.66H15.65c-1.82-.01-4.29,1.88-4.59,3.66ZM93.94,24.79H11.06v47.81c0,.26.79,1.68,1.03,1.97,2.32,2.92,7.86,1.63,11.17,1.78l3.91-3.78c-.53-1.23-4.28-3.21-2.42-4.65,6.08-1.93,12.11-4.14,18.23-5.95,1.45-.43,3.74-1.57,3.86.84l-4.28,13.62h46.78c1.64,0,4.59-2.14,4.59-3.84V24.79ZM43.5,64.65l-15.37,4.87c.64,1.07,2.65,1.98,2.21,3.42l-6.33,6.56,4.58,4.61,6.41-6.32c1.63-.49,2.45,1.47,3.62,2.21l4.88-15.34Z"/>
  <path class="cls-1" d="M24.37,52.48c.97-2.37,1.83-5.33,3.03-7.56.6-1.12,1.41-1.46,2.42-.54l3.46,8.09,3.38-8.04c.9-1.05,2.41-.6,2.36.84-1.37,3.45-2.67,7.36-4.3,10.7-.66,1.35-1.36,2.04-2.63.69l-3.3-7.93-3.39,7.84c-1.24,1.43-1.99.7-2.68-.67-1.6-3.19-2.65-6.94-4.25-10.17-.49-1.55,1.26-2.65,2.32-1.19,1.15,1.59,2.06,5.3,3.05,7.25.13.25.23.6.54.68Z"/>
  <path class="cls-1" d="M47.81,52.48c.23-.02.32-.26.41-.43,1.16-2.14,1.82-5.26,3.01-7.29.68-1.16,1.7-1.27,2.47-.12l3.39,7.84,3.38-8.04c.85-1.07,2.44-.59,2.35.83l-4.87,11.62c-.66.63-1.39.6-1.97-.11-1.31-2.42-2.04-5.36-3.27-7.77-.1-.2.1-.35-.39-.27-1,2.35-1.85,5.5-3.09,7.68-.7,1.24-1.75,1.21-2.49.04-1.15-3.41-3.24-6.91-4.32-10.29-.65-2.02.65-3.14,2.18-1.62l3.22,7.93Z"/>
  <path class="cls-1" d="M71.63,52.48c.4-.26.59-.93.78-1.37.82-1.87,1.61-4.57,2.56-6.24.63-1.12,1.6-1.43,2.45-.31l3.22,7.93c.3-.08.41-.43.54-.68.9-1.75,2.09-6.12,3.13-7.36s2.73-.17,2.24,1.3c-1.56,3.22-2.63,6.85-4.19,10.04-.63,1.3-1.3,2.27-2.66.91-1.22-2.32-1.92-5.26-3.15-7.53-.07-.12-.29-.52-.41-.43l-3.21,7.93c-.58.89-1.66.91-2.28.06l-4.54-10.79c-.58-1.76,1.14-2.88,2.32-1.39l3.21,7.93Z"/>
  <path class="cls-1" d="M23.45,15.27c0,2.34-1.9,4.25-4.25,4.25s-4.25-1.9-4.25-4.25,1.9-4.25,4.25-4.25,4.25,1.9,4.25,4.25ZM20.82,15.28c0-.9-.73-1.63-1.63-1.63s-1.63.73-1.63,1.63.73,1.63,1.63,1.63,1.63-.73,1.63-1.63Z"/>
  <path class="cls-1" d="M47.05,15.28c0,2.34-1.9,4.24-4.25,4.24s-4.25-1.9-4.25-4.24,1.9-4.24,4.25-4.24,4.25,1.9,4.25,4.24ZM44.44,15.29c0-.9-.73-1.62-1.63-1.62s-1.63.73-1.63,1.62.73,1.62,1.63,1.62,1.63-.73,1.63-1.62Z"/>
  <path class="cls-1" d="M35.25,15.27c0,2.34-1.9,4.24-4.25,4.24s-4.25-1.9-4.25-4.24,1.9-4.24,4.25-4.24,4.25,1.9,4.25,4.24ZM32.63,15.28c0-.9-.73-1.63-1.63-1.63s-1.63.73-1.63,1.63.73,1.63,1.63,1.63,1.63-.73,1.63-1.63Z"/>
</svg>