<?xml version="1.0" encoding="UTF-8"?>
<svg id="Capa_1" data-name="Capa 1" xmlns="http://www.w3.org/2000/svg" viewBox="0 0 1920 296">
  <defs>
    <style>
      .cls-1 {
        fill: #c1d262;
        opacity: .5;
      }

      .cls-2 {
        fill: #dfff7d;
      }
    </style>
  </defs>
  <rect class="cls-2" width="1920" height="296"/>
  <path class="cls-1" d="M1793.19,143.26c.17-.79.02-1.6-.42-2.27-.56-.87-1.57-1.35-2.58-1.35-.21,0-.41.03-.61.07l-50.2-118.37s.1-.05.15-.08c.68-.44,1.14-1.12,1.31-1.91.17-.79.02-1.6-.42-2.27-.56-.87-1.57-1.35-2.58-1.35-.56,0-1.12.15-1.6.46-1.4.91-1.8,2.78-.89,4.18.32.49.76.86,1.27,1.1l-30.7,95.43-88.53-26.17c.16-.79.02-1.59-.42-2.26-.56-.87-1.57-1.35-2.58-1.35-.56,0-1.12.15-1.6.46-1.4.91-1.8,2.78-.89,4.18.39.6.98,1.03,1.64,1.24l-13.01,112.55s-.02,0-.03,0c-.48,0-.97.12-1.4.35l-180.94-176.51c.51-.43.87-1.01,1.01-1.67.17-.79.02-1.6-.42-2.27-.56-.87-1.57-1.35-2.58-1.35-.56,0-1.12.15-1.6.46-1.4.91-1.8,2.78-.89,4.18.56.86,1.51,1.38,2.53,1.38.47,0,.92-.11,1.34-.32l180.95,176.53c-.78.72-1.12,1.79-.92,2.8l-207.92,66.9c-.06-.13-.12-.27-.2-.39-.56-.87-1.57-1.35-2.58-1.35-.56,0-1.12.15-1.6.46-1.4.91-1.8,2.78-.89,4.18.56.86,1.51,1.38,2.53,1.38.58,0,1.15-.17,1.64-.49.68-.44,1.14-1.12,1.31-1.91.08-.4.09-.8.01-1.19l207.93-66.91c.06.13.12.26.19.38.56.86,1.51,1.38,2.53,1.38.58,0,1.15-.17,1.64-.49.07-.05.13-.11.2-.16,7.14,8.33,31.72,40.56,49.49,64.17-1.04.98-1.27,2.6-.47,3.84.56.86,1.51,1.38,2.53,1.38.58,0,1.15-.17,1.64-.49.68-.44,1.14-1.12,1.31-1.91.17-.79.02-1.6-.42-2.27-.04-.06-.08-.11-.12-.16l35.05-34.45,95.87,33.85c-.17.76-.04,1.59.42,2.29.56.86,1.51,1.38,2.53,1.38.58,0,1.15-.17,1.64-.49.68-.44,1.14-1.12,1.31-1.91.17-.79.02-1.6-.42-2.27-.56-.87-1.57-1.35-2.58-1.35-.56,0-1.12.15-1.6.46-.15.1-.29.22-.42.34l-69.97-58.63,70.6-69.38c.43.23.93.36,1.44.36.58,0,1.15-.17,1.64-.49.68-.44,1.14-1.12,1.31-1.91ZM1603.53,208.11l77.59-20.57c.07.18.16.35.27.52.56.86,1.51,1.38,2.53,1.38.58,0,1.15-.17,1.64-.49.15-.1.28-.21.41-.33l31.14,26.1-25.89,25.45-87.74-30.98s0-.02.01-.04c.07-.35.08-.69.03-1.03ZM1685.19,183.7l21.21-65.92,80.98,23.94c-.22.7-.19,1.47.13,2.17l-100.94,41.07c-.04-.06-.06-.13-.1-.19-.31-.48-.76-.84-1.28-1.07ZM1717.65,214.2l-31.2-26.14c.2-.31.35-.65.43-1.02.1-.48.07-.95-.05-1.41l101.05-41.12c.1.12.2.24.32.35l-70.55,69.34ZM1692,240.43l25.69-25.25,70.02,58.68c-.06.1-.12.2-.17.31l-95.54-33.74ZM1628.11,242.52c-15.64-20.45-22.29-28.76-25.21-32.12.13-.17.25-.34.34-.53l87.42,30.87-34.8,34.2c-.55-.43-1.25-.67-1.95-.67-.5,0-.99.12-1.43.37-4.04-5.36-14.2-18.82-24.36-32.11ZM1614.26,93.11c.06,0,.12.01.17.01.45,0,.88-.1,1.28-.29l66.16,91.38c-.73.68-1.06,1.67-.93,2.63l-77.59,20.57c-.07-.19-.17-.36-.28-.54-.42-.65-1.1-1.08-1.83-1.26l13.01-112.5ZM1705.7,117.58l-21.21,65.91c-.2-.04-.41-.06-.61-.06-.49,0-.98.12-1.42.36l-66.13-91.35c.35-.28.63-.63.82-1.03l88.55,26.18ZM1788.89,139.94c-.1.05-.2.1-.3.16-.39.25-.69.58-.92.96l-81.06-23.96,30.7-95.41c.19.04.37.06.57.06.28,0,.56-.04.83-.12l50.17,118.32Z"/>
  <path class="cls-1" d="M116.98,152.74c-.17.79-.02,1.6.42,2.27.56.87,1.57,1.35,2.58,1.35.21,0,.41-.03.61-.07l50.2,118.37s-.1.05-.15.08c-.68.44-1.14,1.12-1.31,1.91-.17.79-.02,1.6.42,2.27.56.87,1.57,1.35,2.58,1.35.56,0,1.12-.15,1.6-.46,1.4-.91,1.8-2.78.89-4.18-.32-.49-.76-.86-1.27-1.1l30.7-95.43,88.53,26.17c-.16.79-.02,1.59.42,2.26.56.87,1.57,1.35,2.58,1.35.56,0,1.12-.15,1.6-.46,1.4-.91,1.8-2.78.89-4.18-.39-.6-.98-1.03-1.64-1.24l13.01-112.55s.02,0,.03,0c.48,0,.97-.12,1.4-.35l180.94,176.51c-.51.43-.87,1.01-1.01,1.67-.17.79-.02,1.6.42,2.27.56.87,1.57,1.35,2.58,1.35.56,0,1.12-.15,1.6-.46,1.4-.91,1.8-2.78.89-4.18-.56-.86-1.51-1.38-2.53-1.38-.47,0-.92.11-1.34.32l-180.95-176.53c.78-.72,1.12-1.79.92-2.8l207.92-66.9c.06.13.12.27.2.39.56.87,1.57,1.35,2.58,1.35.56,0,1.12-.15,1.6-.46,1.4-.91,1.8-2.78.89-4.18-.56-.86-1.51-1.38-2.53-1.38-.58,0-1.15.17-1.64.49-.68.44-1.14,1.12-1.31,1.91-.08.4-.09.8-.01,1.19l-207.93,66.91c-.06-.13-.12-.26-.19-.38-.56-.86-1.51-1.38-2.53-1.38-.58,0-1.15.17-1.64.49-.07.05-.13.11-.2.16-7.14-8.33-31.72-40.56-49.49-64.17,1.04-.98,1.27-2.6.47-3.84-.56-.86-1.51-1.38-2.53-1.38-.58,0-1.15.17-1.64.49-.68.44-1.14,1.12-1.31,1.91-.17.79-.02,1.6.42,2.27.04.06.08.11.12.16l-35.05,34.45L122.88,21.15c.17-.76.04-1.59-.42-2.29-.56-.86-1.51-1.38-2.53-1.38-.58,0-1.15.17-1.64.49-.68.44-1.14,1.12-1.31,1.91-.17.79-.02,1.6.42,2.27.56.87,1.57,1.35,2.58,1.35.56,0,1.12-.15,1.6-.46.15-.1.29-.22.42-.34l69.97,58.63-70.6,69.38c-.43-.23-.93-.36-1.44-.36-.58,0-1.15.17-1.64.49-.68.44-1.14,1.12-1.31,1.91ZM306.63,87.89l-77.59,20.57c-.07-.18-.16-.35-.27-.52-.56-.86-1.51-1.38-2.53-1.38-.58,0-1.15.17-1.64.49-.15.1-.28.21-.41.33l-31.14-26.1,25.89-25.45,87.74,30.98s0,.02-.01.04c-.07.35-.08.69-.03,1.03ZM224.98,112.3l-21.21,65.92-80.98-23.94c.22-.7.19-1.47-.13-2.17l100.94-41.07c.04.06.06.13.1.19.31.48.76.84,1.28,1.07ZM192.52,81.8l31.2,26.14c-.2.31-.35.65-.43,1.02-.1.48-.07.95.05,1.41l-101.05,41.12c-.1-.12-.2-.24-.32-.35l70.55-69.34ZM218.17,55.57l-25.69,25.25L122.46,22.14c.06-.1.12-.2.17-.31l95.54,33.74ZM282.06,53.48c15.64,20.45,22.29,28.76,25.21,32.12-.13.17-.25.34-.34.53l-87.42-30.87,34.8-34.2c.55.43,1.25.67,1.95.67.5,0,.99-.12,1.43-.37,4.04,5.36,14.2,18.82,24.36,32.11ZM295.91,202.89c-.06,0-.12-.01-.17-.01-.45,0-.88.1-1.28.29l-66.16-91.38c.73-.68,1.06-1.67.93-2.63l77.59-20.57c.07.19.17.36.28.54.42.65,1.1,1.08,1.83,1.26l-13.01,112.5ZM204.47,178.42l21.21-65.91c.2.04.41.06.61.06.49,0,.98-.12,1.42-.36l66.13,91.35c-.35.28-.63.63-.82,1.03l-88.55-26.18ZM121.28,156.06c.1-.05.2-.1.3-.16.39-.25.69-.58.92-.96l81.06,23.96-30.7,95.41c-.19-.04-.37-.06-.57-.06-.28,0-.56.04-.83.12l-50.17-118.32Z"/>
</svg>