<?xml version="1.0" encoding="UTF-8"?>
<svg id="Capa_1" data-name="Capa 1" xmlns="http://www.w3.org/2000/svg" viewBox="0 0 105 93">
  <defs>
    <style>
      .cls-1 {
        fill: #34bf98;
      }
    </style>
  </defs>
  <path class="cls-1" d="M14.1,9.99l76.31-.06c3.74.29,6.64,3.27,6.83,7.03v58.52c-.35,4.13-3.46,7.27-7.58,7.59H15.35c-4.12-.35-7.25-3.46-7.58-7.59V16.77c.27-3.49,2.87-6.28,6.33-6.78ZM47.63,12.56H14.23c-.51,0-2.12.97-2.53,1.4-.38.39-1.3,1.99-1.3,2.45v9.66h30.78l6.46-13.5ZM94.6,26.06v-9.66c0-.08-.49-1.28-.59-1.47-.74-1.39-2.1-2.12-3.61-2.38h-39.83s-6.3,13.5-6.3,13.5h50.34ZM94.6,28.69H10.39v47.16c0,1.95,2.96,4.65,4.96,4.59h73.92c2.14.26,5.33-2.53,5.33-4.59V28.69Z"/>
  <polygon class="cls-1" points="58.46 37.81 60.91 38.91 46.51 71.3 44.06 70.2 58.46 37.81"/>
  <path class="cls-1" d="M37.85,42.03c1-.15,1.81,1.29,1.18,2.13l-10.49,8.24,10.49,8.24c.79,1.38-.61,2.59-1.91,1.73l-11.66-8.94c-.74-.7-.56-1.67.19-2.25,3.84-2.35,7.56-6.47,11.34-8.7.25-.15.6-.41.87-.45Z"/>
  <path class="cls-1" d="M67.03,42.05c.35-.01.69.27.98.44,3.78,2.21,7.51,6.35,11.34,8.7.75.58.93,1.55.19,2.25l-11.66,8.94c-1.31.86-2.7-.35-1.91-1.73l10.49-8.24-10.49-8.24c-.57-.86.04-2.08,1.07-2.12Z"/>
  <path class="cls-1" d="M54.69,18.04l34.02-.04c1.81.2,1.56,2.5-.19,2.63h-33.32c-1.58-.18-1.88-1.81-.52-2.59Z"/>
  <path class="cls-1" d="M25.03,19.29c0,2.38-1.93,4.31-4.3,4.31s-4.3-1.93-4.3-4.31,1.93-4.31,4.3-4.31,4.3,1.93,4.3,4.31ZM22.41,19.28c0-.93-.75-1.69-1.69-1.69s-1.69.76-1.69,1.69.75,1.69,1.69,1.69,1.69-.76,1.69-1.69Z"/>
  <path class="cls-1" d="M37.04,19.28c0,2.37-1.92,4.3-4.29,4.3s-4.29-1.92-4.29-4.3,1.92-4.3,4.29-4.3,4.29,1.92,4.29,4.3ZM34.44,19.29c0-.93-.75-1.69-1.68-1.69s-1.68.76-1.68,1.69.75,1.69,1.68,1.69,1.68-.76,1.68-1.69Z"/>
</svg>