<?xml version="1.0" encoding="UTF-8"?>
<svg id="Capa_1" data-name="Capa 1" xmlns="http://www.w3.org/2000/svg" viewBox="0 0 149 143">
  <defs>
    <style>
      .cls-1 {
        fill: #0d025a;
      }

      .cls-2 {
        fill: #dfff7d;
      }
    </style>
  </defs>
  <circle class="cls-2" cx="74.5" cy="71.5" r="63"/>
  <g>
    <path class="cls-1" d="M71.32,21.69c9.45-.59,19.2,1.55,27.4,6.22,4.91-3.5,11.32-.33,10.82,5.82-.05.6-.54,1.51-.32,1.99s2.41,2.32,2.96,2.95c14.41,16.48,16.4,40.51,4.83,59.14-14.17,22.81-44.12,30.43-67.53,16.89-.43-.06-1.9,1.21-2.65,1.48-3.03,1.1-6.4-.04-7.98-2.85-1.34-2.38-.91-4.51,0-6.94-7.76-7.82-12.93-18.54-14.08-29.54-2.94-28.19,18.18-53.41,46.54-55.17ZM97.09,30.26c-15.81-8.51-35.2-7.38-49.84,2.98-16.48,11.66-23.62,32.72-17.71,52.12,2.2,7.22,6.27,13.8,11.55,19.15,5.24-3.03,11.22,1.66,9.71,7.44,21.78,13.04,50.21,5.82,63.59-15.48,11.76-18.72,8.72-43.26-7.07-58.59-5.38,4.51-13-1.22-10.23-7.61ZM106.63,32.96c0-1.98-1.6-3.58-3.58-3.58s-3.58,1.6-3.58,3.58,1.6,3.58,3.58,3.58,3.58-1.6,3.58-3.58ZM48.08,110.07c0-1.98-1.61-3.58-3.59-3.58s-3.59,1.6-3.59,3.58,1.61,3.58,3.59,3.58,3.59-1.6,3.59-3.58Z"/>
    <path class="cls-1" d="M108.31,62c7.78.83,8.62,10.96,1.11,13.08-2.34,21.8-23.71,36.2-44.97,29.96-10.08-2.96-18.58-10.7-22.44-20.44-4.68-.23-7.68-4.56-5.91-9.02.72-1.8,1.81-2.58,3.38-3.57-.37-16.44,11.46-31.23,27.49-34.66,18.37-3.93,36.18,6.77,41.35,24.65ZM42.49,71.49c6.6.75,8.49,9.17,2.59,12.45l-.07.28c8.72,20.26,35.3,25.88,51.55,10.68,4.42-4.14,9.77-13.12,9.82-19.27,0-1.17-.82-.94-1.69-1.49-3.4-2.17-4.26-6.65-1.6-9.77.71-.83,1.66-1.19,2.21-1.98-6.15-20.34-29.84-29.29-48.07-17.89-9.02,5.64-15.02,16.3-14.75,27ZM111.69,68.59c0-1.98-1.6-3.58-3.58-3.58s-3.58,1.6-3.58,3.58,1.6,3.58,3.58,3.58,3.58-1.6,3.58-3.58ZM45.67,78.08c0-1.97-1.6-3.56-3.57-3.56s-3.57,1.6-3.57,3.56,1.6,3.56,3.57,3.56,3.57-1.6,3.57-3.56Z"/>
    <path class="cls-1" d="M87.14,71.51c0,6.96-5.65,12.59-12.62,12.59s-12.62-5.64-12.62-12.59,5.65-12.59,12.62-12.59,12.62,5.64,12.62,12.59Z"/>
  </g>
</svg>