<?xml version="1.0" encoding="UTF-8"?>
<svg id="Capa_1" data-name="Capa 1" xmlns="http://www.w3.org/2000/svg" viewBox="0 0 105 93">
  <defs>
    <style>
      .cls-1 {
        fill: #34bf98;
      }
    </style>
  </defs>
  <path class="cls-1" d="M14.1,10.06l76.31-.06c3.74.29,6.64,3.26,6.83,7.02v58.4c-.35,4.12-3.46,7.25-7.58,7.58H15.35c-4.12-.35-7.25-3.45-7.58-7.58V16.83c.27-3.49,2.87-6.27,6.33-6.77ZM47.63,12.63H14.23c-.46,0-2.05.92-2.44,1.3-.42.41-1.4,2.03-1.4,2.53v9.64h30.78l6.46-13.47ZM94.6,26.1v-9.64c0-.08-.49-1.28-.59-1.46-.74-1.39-2.1-2.12-3.61-2.37h-39.83s-6.3,13.47-6.3,13.47h50.34ZM94.6,28.72H10.39v47.06c0,1.74,2.85,4.58,4.58,4.58h42.95l-10.67-10.76c-.64-.3-2.09.23-2.89.28-10.5.66-18.67-7.81-17.89-18.26.1-1.31.87-6,2.68-5.67l11.31,10.99c1.19.33,4.26-2.59,5.01-3.53.43-.53,1.63-2.31,1.23-2.91l-10.83-10.89c-.39-1.48.75-1.78,1.87-2.17,9.84-3.38,20.37,3.25,21.83,13.46.32,2.27.05,4.19-.26,6.43l22.93,22.93c2.58-.1,6.69.64,9.03-.32,1.32-.53,3.31-2.72,3.31-4.17V28.72ZM78.51,80.37l-21.6-21.72c-.85-.99-.09-2.13.06-3.29,1.27-9.63-6.7-17.44-16.33-15.95-.22.03-1.21.07-1.05.44l9.81,9.84c.7,1.18-.7,3.67-1.42,4.72-1.3,1.9-5.8,6.07-8.26,5.33l-9.67-9.6-.56-.28c-2.36,9.37,5.25,18.19,14.87,17.4,1.2-.1,2.85-.9,3.91-.35l13.5,13.45h6.46l-14.78-14.88c-.87-1.14.16-2.55,1.51-2.07l17.11,16.95h6.46Z"/>
  <path class="cls-1" d="M54.69,18.09l34.02-.04c1.81.2,1.56,2.5-.19,2.63h-33.32c-1.58-.18-1.88-1.8-.52-2.59Z"/>
  <path class="cls-1" d="M25.03,19.35c0,2.38-1.93,4.3-4.3,4.3s-4.3-1.93-4.3-4.3,1.93-4.3,4.3-4.3,4.3,1.93,4.3,4.3ZM22.41,19.33c0-.93-.75-1.69-1.69-1.69s-1.69.75-1.69,1.69.75,1.69,1.69,1.69,1.69-.75,1.69-1.69Z"/>
  <path class="cls-1" d="M37.04,19.33c0,2.37-1.92,4.29-4.29,4.29s-4.29-1.92-4.29-4.29,1.92-4.29,4.29-4.29,4.29,1.92,4.29,4.29ZM34.44,19.34c0-.93-.75-1.68-1.68-1.68s-1.68.75-1.68,1.68.75,1.68,1.68,1.68,1.68-.75,1.68-1.68Z"/>
</svg>