<?xml version="1.0" encoding="UTF-8"?>
<svg id="Capa_1" data-name="Capa 1" xmlns="http://www.w3.org/2000/svg" viewBox="0 0 124 117">
  <defs>
    <style>
      .cls-1 {
        fill: #0d025a;
      }

      .cls-2 {
        fill: #dfff7d;
      }
    </style>
  </defs>
  <ellipse class="cls-1" cx="62" cy="58.5" rx="53" ry="53.57"/>
  <g>
    <path class="cls-2" d="M38.32,83.23c0-.47-.04-.95,0-1.42.26-3.25,1.76-8.44,1.57-11.4-.07-1.08-1.84-4.64-2.22-6.35-5.69-25.55,26.59-41.28,43.16-21.9,17.53,20.52-5.36,49.91-29.68,38.99l-12.82,2.09ZM43.24,78.05c.7.48,7.01-1.38,8.42-1.31,1.49.07,4.87,2.08,7.29,2.32,25.41,2.55,32.54-31.42,10.6-39.89-19.04-7.36-35.66,13.63-25.14,30.71l-1.17,8.17Z"/>
    <path class="cls-2" d="M53.8,46.73c2.2-.43,3.8,5.07,3.32,6.7-.27.89-1.69,1.79-1.7,2.18.99,2.85,2.9,5.33,5.19,7.27.73.62,3.08,2.38,3.89,2.61,2.32.64,3.01-3.61,5.64-2.54.43.18,3.39,2.55,3.56,2.92.71,1.53-2.53,4.64-4.06,5-1.93.46-5.21-.82-7.04-1.67-5.38-2.52-13-10.42-12.89-16.68.04-2.03,2.03-5.38,4.1-5.78Z"/>
  </g>
</svg>