<?xml version="1.0" encoding="UTF-8"?>
<svg id="Capa_1" data-name="Capa 1" xmlns="http://www.w3.org/2000/svg" viewBox="0 0 209 212">
  <defs>
    <style>
      .cls-1 {
        fill: #fff;
      }

      .cls-2 {
        fill: #34bf98;
      }
    </style>
  </defs>
  <ellipse class="cls-2" cx="104.5" cy="106" rx="97.46" ry="98.51"/>
  <g>
    <path class="cls-1" d="M120.04,78.85h30.97c.08,0,1.08.98.92,1.3v22.81c-.29,1.74-1,2.85-2.44,3.82-.45.3-1.13.23-1.2.82v34.29c-.53,2.61-2.27,4.16-4.93,4.36h-77.9c-2.57-.23-4.37-2.01-4.73-4.55v-34.1c-.06-.58-.75-.51-1.2-.82-1.44-.97-2.15-2.08-2.43-3.82v-22.81c-.17-.32.83-1.3.91-1.3h30.97v-8.58c0-.12.42-1.28.52-1.49.83-1.76,2.5-2.7,4.41-2.85,6.99-.55,14.71.41,21.78.03,1.83.09,4.36,2.53,4.36,4.32v8.58ZM117.21,78.85v-8.37c0-.6-1.38-1.82-2.11-1.72-6.73.5-14.38-.65-21,0-.54.05-1.06.17-1.49.52-.2.17-.82,1.06-.82,1.2v8.37h2.42v-6.56c0-.38,1.01-1.23,1.51-1.11,5.59.39,11.85-.5,17.37,0,.58.05,1.71.45,1.71,1.12v6.56h2.42ZM111.97,74.01h-14.93v4.84h14.93v-4.84ZM149.09,81.67H59.91v21.29c0,.6,1.38,1.82,2.11,1.72h27.45c.49-.1,1.22-1.67,1.63-2.21,6.87-8.98,20.09-8.88,26.88.12.4.53,1.05,1.99,1.55,2.09h27.45c.74.1,2.11-1.11,2.11-1.72v-21.29ZM118.42,112.54c0-7.69-6.23-13.92-13.92-13.92s-13.92,6.23-13.92,13.92,6.23,13.92,13.92,13.92,13.92-6.23,13.92-13.92ZM88.56,107.5h-25.02v34.2c0,.44,1.06,1.56,1.61,1.62h78.7c.54-.06,1.61-1.18,1.61-1.62v-34.2h-25.02c4.17,13.22-8.53,25.49-21.69,20.79-8.26-2.95-13.03-12.38-10.18-20.79Z"/>
    <path class="cls-1" d="M105.91,104.67h3.93c.06,0,.75.71.8.81.31.68-.04,1.63-.71,1.91-1.28.53-5.6-.16-7.35.12-1.87.29-2.05,3-.32,3.53,2.14.66,4.27-.7,6.66,1.01,3.66,2.62,1.45,8.62-3.01,8.36.74,4.36-3.56,4.37-2.82,0h-3.93c-.06,0-.75-.71-.8-.81-.31-.68.04-1.63.71-1.91,1.28-.53,5.6.16,7.35-.12,1.87-.29,2.05-3,.32-3.53-2.14-.66-4.27.7-6.66-1.01-3.66-2.62-1.45-8.62,3.01-8.36-.74-4.36,3.56-4.37,2.82,0Z"/>
  </g>
</svg>