<?xml version="1.0" encoding="UTF-8"?>
<svg id="Capa_1" data-name="Capa 1" xmlns="http://www.w3.org/2000/svg" viewBox="0 0 209 212">
  <defs>
    <style>
      .cls-1 {
        fill: #fff;
      }

      .cls-2 {
        fill: #34bf98;
      }
    </style>
  </defs>
  <ellipse class="cls-2" cx="104.5" cy="106" rx="97.46" ry="98.51"/>
  <g>
    <path class="cls-1" d="M76.03,132.1c-3.03-.43-5.23-3.73-5.26-6.67v-36.22c-3.02-.99-5.94-2.91-7.13-6.01-1.41-3.66-.38-4.57,1.42-7.46,2.65-4.26,5.58-8.35,8.19-12.63l.86-.78h60.7l.76.64c2.87,5.04,6.88,9.85,9.69,14.87.87,1.56.94,1.96.54,3.78-.88,4.03-4.02,6.6-7.91,7.57v37.85c-.2,1.42-1.51,3.32-2.71,4.08-.27.17-2.15.97-2.3.97h-17.19l1.2,6.99c3.1.05,5.84,1.96,7.03,4.78.57,1.36,1.4,4.95-.28,5.65l-37.55.14c-2.65-.17-1.81-3.93-1.15-5.63,1.11-2.88,4-5.04,7.12-4.93l1.18-7.01h-17.19ZM82.93,65.44h-7.13c-2.24,3.23-4.43,6.52-6.53,9.84-.54.86-1.24,1.82-1.54,2.79h11.35l3.86-12.63ZM95.79,65.44h-9.59l-3.51,12.63h12.16l.94-12.63ZM109.83,65.44h-10.76l-.89,12.1.31.53h11.93l.31-.53-.89-12.1ZM122.69,65.44h-9.59l.94,12.63h12.16l-3.51-12.63ZM141.17,78.07c-.3-.96-1-1.93-1.54-2.79-2.1-3.32-4.29-6.61-6.53-9.84h-7.13l3.86,12.63h11.35ZM78.48,81.34h-11.93c1.39,6.08,10.54,6.08,11.93,0ZM94.62,81.34h-12.16c1.64,6.24,10.31,6.08,12.16,0ZM110.53,81.34h-12.16c1.89,6.14,10.28,6.14,12.16,0ZM126.44,81.34h-12.16c1.85,6.08,10.53,6.24,12.16,0ZM142.34,81.34h-11.93c1.44,6.13,10.49,6.1,11.93,0ZM96.73,85.09c-.29-.2-1.56,1.5-1.99,1.86-4.53,3.84-10.74,2.63-14.26-1.86-1.5,2.16-3.84,3.48-6.41,4l-.03,35.89c.13,1.54.49,3.21,2.16,3.69h56.52c.92-.29,1.41-.85,1.81-1.7l.07-37.87c-2.53-.67-4.6-1.92-6.17-4-3.46,4.59-9.93,5.68-14.39,1.75-.45-.4-1.41-1.76-1.75-1.76-3.52,5.46-12.19,5.57-15.56,0ZM95.33,138.89h18.25l-1.16-6.63-.35-.16-15.54.04-1.19,6.76ZM121.29,146.37c-.29-1.75-1.45-3.15-3.08-3.82-9.02-.68-18.31-.58-27.34-.05-1.72.6-2.96,2.07-3.26,3.87h33.68Z"/>
    <path class="cls-1" d="M105.15,100.29c2.88-.17,4.08.35,5.97,2.33,1.34,1.4,2.29,2.54,2.46,4.56.2,2.37.3,11.62-.31,13.51-.41,1.27-1.55,2.47-2.91,2.7-1.74.29-10.1.3-11.77-.05s-2.71-1.99-3.01-3.54l.08-24.2c.61-3.04,3.78-3.07,6.33-2.79,4.05.43,3.08,4.55,3.16,7.49ZM98.84,96.08v4.21h3.04v-4.21h-3.04ZM99.19,103.56l-.35.35v15.67c0,.3.73.55,1.04.6,1.77.24,7.58.22,9.38,0,.25-.03.54,0,.71-.23-.01-1.35.29-2.81.35-4.1.09-2.03.32-7.15-.01-8.89-.17-.91-2.32-2.85-3.15-3.4h-7.95Z"/>
    <path class="cls-1" d="M102.05,105.47c.92-.16,1.82.57,1.94,1.47.15,1.12.25,3.57-.72,4.21-3.08,2.04-3.54-5.27-1.22-5.68Z"/>
  </g>
</svg>