<?xml version="1.0" encoding="UTF-8"?>
<svg id="Capa_1" data-name="Capa 1" xmlns="http://www.w3.org/2000/svg" viewBox="0 0 626 128">
  <defs>
    <style>
      .cls-1 {
        fill: #cbcbcb;
      }

      .cls-2 {
        opacity: .2;
      }
    </style>
  </defs>
  <g class="cls-2">
    <path class="cls-1" d="M50.49,119.74c-5.6,0-10.84-1.05-15.71-3.16-4.87-2.11-9.13-5.05-12.75-8.81-3.63-3.77-6.46-8.17-8.5-13.22-2.04-5.04-3.06-10.51-3.06-16.38s1.02-11.22,3.06-16.23c2.04-5.01,4.88-9.4,8.5-13.17,3.63-3.77,7.86-6.72,12.7-8.87,4.84-2.14,10.09-3.21,15.76-3.21,5.32,0,9.9.69,13.74,2.07,3.84,1.38,7.69,3.67,11.56,6.84.55.42.99.85,1.3,1.3.31.45.52.9.62,1.35.1.45.16.98.16,1.61,0,1.31-.47,2.4-1.4,3.27-.93.87-2.06,1.35-3.37,1.45-1.31.1-2.59-.33-3.84-1.3-2.56-2.21-5.2-3.91-7.93-5.08-2.73-1.17-6.34-1.76-10.84-1.76-4.08,0-7.92.83-11.51,2.49-3.6,1.66-6.76,3.94-9.49,6.84-2.73,2.9-4.86,6.27-6.38,10.11-1.52,3.84-2.28,7.93-2.28,12.29s.76,8.55,2.28,12.39c1.52,3.84,3.65,7.21,6.38,10.11,2.73,2.9,5.89,5.17,9.49,6.79,3.59,1.62,7.43,2.44,11.51,2.44,3.53,0,6.86-.6,10.01-1.81,3.14-1.21,6.17-2.89,9.07-5.03,1.24-.9,2.47-1.3,3.68-1.19,1.21.1,2.23.59,3.06,1.45.83.87,1.25,2.06,1.25,3.58,0,.69-.14,1.37-.42,2.02-.28.66-.69,1.26-1.24,1.82-3.73,2.97-7.72,5.22-11.98,6.74-4.25,1.52-8.73,2.28-13.43,2.28Z"/>
    <path class="cls-1" d="M132.2,119.74c-6.08,0-11.65-1.02-16.7-3.06-5.05-2.04-9.38-4.91-13.02-8.61-3.63-3.7-6.45-8.09-8.45-13.17-2.01-5.08-3.01-10.66-3.01-16.75s1-11.65,3.01-16.7c2-5.04,4.82-9.42,8.45-13.12,3.63-3.7,7.97-6.57,13.02-8.61,5.04-2.04,10.61-3.06,16.7-3.06s11.63,1.02,16.64,3.06c5.01,2.04,9.35,4.91,13.01,8.61,3.66,3.7,6.5,8.07,8.5,13.12,2,5.05,3.01,10.61,3.01,16.7s-1,11.67-3.01,16.75c-2.01,5.08-4.84,9.47-8.5,13.17-3.67,3.7-8,6.57-13.01,8.61-5.01,2.04-10.56,3.06-16.64,3.06ZM132.2,109.99c4.49,0,8.62-.81,12.39-2.44,3.77-1.62,7.03-3.87,9.8-6.74,2.76-2.87,4.89-6.24,6.38-10.11,1.49-3.87,2.23-8.05,2.23-12.55s-.74-8.68-2.23-12.55c-1.49-3.87-3.61-7.24-6.38-10.11-2.77-2.87-6.03-5.1-9.8-6.69-3.77-1.59-7.9-2.39-12.39-2.39s-8.62.8-12.39,2.39c-3.77,1.59-7.02,3.82-9.75,6.69-2.73,2.87-4.86,6.24-6.38,10.11-1.52,3.87-2.28,8.05-2.28,12.55s.76,8.68,2.28,12.55c1.52,3.87,3.65,7.24,6.38,10.11,2.73,2.87,5.98,5.12,9.75,6.74,3.77,1.62,7.9,2.44,12.39,2.44Z"/>
    <path class="cls-1" d="M195.56,118.7c-1.52,0-2.78-.52-3.79-1.56-1-1.04-1.5-2.32-1.5-3.84V43.1c0-1.59.5-2.89,1.5-3.89s2.26-1.5,3.79-1.5c1.66,0,3.04.66,4.15,1.97l45.21,60.15v-56.72c0-1.59.52-2.89,1.56-3.89,1.04-1,2.32-1.5,3.84-1.5s2.87.5,3.84,1.5c.97,1,1.45,2.3,1.45,3.89v70.2c0,1.52-.48,2.8-1.45,3.84-.97,1.04-2.25,1.56-3.84,1.56-.69,0-1.44-.16-2.23-.47-.8-.31-1.44-.78-1.92-1.4l-45.21-60.15v56.62c0,1.52-.5,2.8-1.5,3.84-1,1.04-2.3,1.56-3.89,1.56Z"/>
    <path class="cls-1" d="M281.74,118.7c-1.52,0-2.8-.52-3.84-1.56s-1.55-2.32-1.55-3.84V43.1c0-1.59.52-2.89,1.55-3.89,1.04-1,2.32-1.5,3.84-1.5h46.87c1.59,0,2.87.47,3.84,1.4.97.93,1.45,2.16,1.45,3.68s-.48,2.63-1.45,3.53c-.97.9-2.25,1.35-3.84,1.35h-41.48v25.2h29.76c1.59,0,2.87.47,3.84,1.4.97.93,1.45,2.12,1.45,3.58s-.48,2.64-1.45,3.58c-.97.93-2.25,1.4-3.84,1.4h-29.76v25.92h41.48c1.59,0,2.87.45,3.84,1.35.97.9,1.45,2.07,1.45,3.53s-.48,2.75-1.45,3.68c-.97.93-2.25,1.4-3.84,1.4h-46.87Z"/>
    <path class="cls-1" d="M348.62,118.7c-1.59,0-2.8-.5-3.63-1.5-.83-1-1.24-2.18-1.24-3.53s.41-2.58,1.24-3.68l26.13-34.84,4.67-4.15,23.85-31.73c.97-1.04,2.25-1.55,3.84-1.55,1.45,0,2.59.45,3.42,1.35.83.9,1.28,2.01,1.35,3.32.07,1.31-.31,2.59-1.14,3.84l-25.2,33.6-4.46,3.94-25.09,33.39c-1.04,1.04-2.28,1.56-3.73,1.56ZM402.85,118.7c-.9,0-1.68-.16-2.33-.47-.66-.31-1.26-.81-1.81-1.5l-24.16-33.49-3.84-3.21-24.37-33.81c-.83-1.11-1.18-2.32-1.04-3.63.14-1.31.64-2.45,1.5-3.42.86-.97,2.02-1.45,3.47-1.45,1.8,0,3.08.52,3.84,1.55l23.02,31.94,3.94,3.21,25.61,35.57c.83,1.11,1.21,2.35,1.14,3.73-.07,1.38-.54,2.56-1.4,3.53-.87.97-2.06,1.45-3.58,1.45Z"/>
    <path class="cls-1" d="M428.57,118.7c-1.52,0-2.8-.52-3.84-1.56s-1.55-2.32-1.55-3.84V43.1c0-1.59.52-2.89,1.55-3.89,1.04-1,2.32-1.5,3.84-1.5s2.88.5,3.89,1.5c1,1,1.5,2.3,1.5,3.89v70.2c0,1.52-.5,2.8-1.5,3.84-1,1.04-2.3,1.56-3.89,1.56Z"/>
    <path class="cls-1" d="M492.14,119.74c-6.08,0-11.65-1.02-16.7-3.06-5.05-2.04-9.38-4.91-13.01-8.61-3.63-3.7-6.45-8.09-8.45-13.17-2.01-5.08-3.01-10.66-3.01-16.75s1-11.65,3.01-16.7c2-5.04,4.82-9.42,8.45-13.12,3.63-3.7,7.97-6.57,13.01-8.61,5.05-2.04,10.61-3.06,16.7-3.06s11.63,1.02,16.64,3.06c5.01,2.04,9.35,4.91,13.01,8.61,3.66,3.7,6.5,8.07,8.5,13.12,2,5.05,3.01,10.61,3.01,16.7s-1,11.67-3.01,16.75c-2.01,5.08-4.84,9.47-8.5,13.17-3.66,3.7-8,6.57-13.01,8.61-5.01,2.04-10.56,3.06-16.64,3.06ZM492.14,109.99c4.49,0,8.62-.81,12.39-2.44,3.77-1.62,7.03-3.87,9.8-6.74,2.76-2.87,4.89-6.24,6.38-10.11,1.49-3.87,2.23-8.05,2.23-12.55s-.74-8.68-2.23-12.55c-1.49-3.87-3.61-7.24-6.38-10.11-2.77-2.87-6.03-5.1-9.8-6.69-3.77-1.59-7.9-2.39-12.39-2.39s-8.62.8-12.39,2.39c-3.77,1.59-7.02,3.82-9.75,6.69-2.73,2.87-4.86,6.24-6.38,10.11-1.52,3.87-2.28,8.05-2.28,12.55s.76,8.68,2.28,12.55c1.52,3.87,3.64,7.24,6.38,10.11,2.73,2.87,5.98,5.12,9.75,6.74,3.77,1.62,7.9,2.44,12.39,2.44ZM492.55,28.79c-1.52,0-2.78-.5-3.79-1.5-1-1-1.5-2.26-1.5-3.79s.42-2.63,1.24-3.53l10.16-10.16c1.04-1.04,2.28-1.56,3.73-1.56,1.59,0,2.87.52,3.84,1.56.97,1.04,1.45,2.32,1.45,3.84,0,.69-.1,1.35-.31,1.97-.21.62-.59,1.18-1.14,1.66l-10.06,10.06c-.97.97-2.18,1.45-3.63,1.45Z"/>
    <path class="cls-1" d="M555.5,118.7c-1.52,0-2.78-.52-3.79-1.56s-1.5-2.32-1.5-3.84V43.1c0-1.59.5-2.89,1.5-3.89,1-1,2.26-1.5,3.79-1.5,1.66,0,3.04.66,4.15,1.97l45.21,60.15v-56.72c0-1.59.52-2.89,1.55-3.89,1.04-1,2.32-1.5,3.84-1.5s2.87.5,3.84,1.5c.97,1,1.45,2.3,1.45,3.89v70.2c0,1.52-.48,2.8-1.45,3.84-.97,1.04-2.25,1.56-3.84,1.56-.69,0-1.44-.16-2.23-.47-.79-.31-1.44-.78-1.92-1.4l-45.21-60.15v56.62c0,1.52-.5,2.8-1.5,3.84s-2.3,1.56-3.89,1.56Z"/>
  </g>
</svg>