<?xml version="1.0" encoding="UTF-8"?>
<svg id="Capa_1" data-name="Capa 1" xmlns="http://www.w3.org/2000/svg" viewBox="0 0 124 117">
  <defs>
    <style>
      .cls-1 {
        fill: #0d025a;
      }

      .cls-2 {
        fill: #dfff7d;
      }
    </style>
  </defs>
  <ellipse class="cls-1" cx="62" cy="58.5" rx="53" ry="53.57"/>
  <path class="cls-2" d="M84.63,37.8c3.36.1,2.24,4.74,1.99,7.01-1.12,10.28-3.52,20.65-4.92,30.91-1.09,4.08-4.03,4.21-7.34,2.33-4.74-2.69-9.35-7.22-14.16-10-1.78-1.72-1.36-2.81.13-4.48,3.93-4.41,10.43-8.69,13.99-13.16,2.8-3.51.2-3.03-2.39-1.58-6.34,3.56-12.58,9.43-18.94,12.82-4.39,2.34-10.02.38-14.28-1.69-.66-.32-1.31-.64-1.68-1.33-.25-.97,1.85-2.11,2.59-2.48,8.3-4.19,18.41-8.35,27.06-12.03,3.86-1.65,14.29-6.43,17.97-6.32Z"/>
</svg>