<?xml version="1.0" encoding="UTF-8"?>
<svg id="Capa_1" data-name="Capa 1" xmlns="http://www.w3.org/2000/svg" viewBox="0 0 507 106">
  <defs>
    <style>
      .cls-1 {
        fill: #34bf98;
      }

      .cls-2 {
        opacity: .15;
      }
    </style>
  </defs>
  <g class="cls-2">
    <path class="cls-1" d="M14.79,93.49c-1.52,0-2.8-.52-3.84-1.56s-1.56-2.32-1.56-3.84V17.9c0-1.59.52-2.89,1.56-3.89,1.04-1,2.31-1.5,3.84-1.5s2.89.5,3.89,1.5c1,1,1.5,2.3,1.5,3.89v70.2c0,1.52-.5,2.8-1.5,3.84s-2.3,1.56-3.89,1.56Z"/>
    <path class="cls-1" d="M46.31,93.49c-1.52,0-2.8-.52-3.84-1.56s-1.56-2.32-1.56-3.84V17.9c0-1.59.52-2.89,1.56-3.89,1.04-1,2.32-1.5,3.84-1.5,2.07,0,3.66.97,4.77,2.9l32.46,65.02h-3.32L111.85,15.41c1.11-1.93,2.7-2.9,4.77-2.9,1.52,0,2.8.5,3.84,1.5,1.04,1,1.56,2.3,1.56,3.89v70.2c0,1.52-.54,2.8-1.61,3.84-1.07,1.04-2.33,1.56-3.79,1.56s-2.8-.52-3.84-1.56-1.55-2.32-1.55-3.84v-55.27l2.07-.52-27.17,55.38c-1.18,1.8-2.73,2.7-4.67,2.7-2.28,0-3.94-1.07-4.98-3.21l-26.86-53.82,2.07-.52v55.27c0,1.52-.52,2.8-1.56,3.84s-2.32,1.56-3.84,1.56Z"/>
    <path class="cls-1" d="M148.14,93.49c-1.52,0-2.8-.52-3.84-1.56s-1.55-2.32-1.55-3.84V17.9c0-1.59.52-2.89,1.55-3.89,1.04-1,2.32-1.5,3.84-1.5h20.74c5.18,0,9.78,1.14,13.79,3.42,4.01,2.28,7.14,5.44,9.38,9.49,2.25,4.04,3.37,8.69,3.37,13.95s-1.12,9.54-3.37,13.48c-2.25,3.94-5.38,7.02-9.38,9.23-4.01,2.21-8.61,3.32-13.79,3.32h-15.35v22.71c0,1.52-.5,2.8-1.5,3.84-1,1.04-2.3,1.56-3.89,1.56ZM153.53,55.44h15.35c3.18,0,5.98-.69,8.4-2.07,2.42-1.38,4.32-3.28,5.7-5.7,1.38-2.42,2.07-5.18,2.07-8.3,0-3.32-.69-6.24-2.07-8.76-1.38-2.52-3.28-4.51-5.7-5.96-2.42-1.45-5.22-2.18-8.4-2.18h-15.35v32.98Z"/>
    <path class="cls-1" d="M201.03,93.49c-1.94,0-3.42-.83-4.46-2.49s-1.14-3.42-.31-5.29l29.14-69.58c1.04-2.42,2.73-3.63,5.08-3.63,2.49,0,4.18,1.21,5.08,3.63l29.24,69.79c.76,1.94.64,3.68-.36,5.24-1,1.56-2.51,2.33-4.51,2.33-1.04,0-2.02-.29-2.96-.88-.93-.59-1.61-1.4-2.02-2.44l-25.72-63.88h2.9l-26.13,63.88c-.48,1.11-1.19,1.94-2.13,2.49-.93.55-1.88.83-2.85.83ZM206.52,75.66l4.15-8.92h40.65l4.15,8.92h-48.95Z"/>
    <path class="cls-1" d="M311.36,94.53c-5.6,0-10.84-1.05-15.71-3.16-4.87-2.11-9.12-5.05-12.75-8.81-3.63-3.77-6.46-8.17-8.5-13.22-2.04-5.04-3.06-10.51-3.06-16.38s1.02-11.22,3.06-16.23c2.04-5.01,4.87-9.4,8.5-13.17,3.63-3.77,7.86-6.72,12.7-8.87,4.84-2.14,10.09-3.21,15.76-3.21,5.32,0,9.9.69,13.74,2.07,3.84,1.38,7.69,3.67,11.56,6.84.55.42.99.85,1.3,1.3.31.45.52.9.62,1.35.1.45.16.98.16,1.61,0,1.31-.47,2.4-1.4,3.27-.93.87-2.06,1.35-3.37,1.45-1.31.1-2.59-.33-3.84-1.3-2.56-2.21-5.2-3.91-7.93-5.08-2.73-1.17-6.34-1.76-10.84-1.76-4.08,0-7.92.83-11.51,2.49-3.59,1.66-6.76,3.94-9.49,6.84-2.73,2.9-4.86,6.27-6.38,10.11-1.52,3.84-2.28,7.93-2.28,12.29s.76,8.55,2.28,12.39c1.52,3.84,3.65,7.21,6.38,10.11,2.73,2.9,5.89,5.17,9.49,6.79,3.59,1.62,7.43,2.44,11.51,2.44,3.53,0,6.86-.6,10.01-1.81,3.15-1.21,6.17-2.89,9.07-5.03,1.24-.9,2.47-1.3,3.68-1.19,1.21.1,2.23.59,3.06,1.45.83.87,1.24,2.06,1.24,3.58,0,.69-.14,1.37-.41,2.02-.28.66-.69,1.26-1.24,1.82-3.73,2.97-7.73,5.22-11.98,6.74-4.25,1.52-8.73,2.28-13.43,2.28Z"/>
    <path class="cls-1" d="M351.8,22.46c-1.45,0-2.64-.47-3.58-1.4s-1.4-2.13-1.4-3.58.47-2.64,1.4-3.58,2.13-1.4,3.58-1.4h55.48c1.45,0,2.64.47,3.58,1.4s1.4,2.13,1.4,3.58-.47,2.64-1.4,3.58-2.13,1.4-3.58,1.4h-55.48ZM379.6,93.49c-1.52,0-2.8-.52-3.84-1.56-1.04-1.04-1.56-2.32-1.56-3.84V12.51h10.79v75.6c0,1.52-.52,2.8-1.56,3.84s-2.32,1.56-3.84,1.56Z"/>
    <path class="cls-1" d="M456.44,94.53c-6.08,0-11.65-1.02-16.7-3.06-5.05-2.04-9.38-4.91-13.01-8.61-3.63-3.7-6.45-8.09-8.45-13.17-2.01-5.08-3.01-10.66-3.01-16.75s1-11.65,3.01-16.7c2-5.04,4.82-9.42,8.45-13.12,3.63-3.7,7.97-6.57,13.01-8.61,5.04-2.04,10.61-3.06,16.7-3.06s11.63,1.02,16.64,3.06c5.01,2.04,9.35,4.91,13.01,8.61,3.66,3.7,6.5,8.07,8.5,13.12,2,5.05,3.01,10.61,3.01,16.7s-1,11.67-3.01,16.75c-2.01,5.08-4.84,9.47-8.5,13.17-3.67,3.7-8,6.57-13.01,8.61-5.01,2.04-10.56,3.06-16.64,3.06ZM456.44,84.78c4.49,0,8.62-.81,12.39-2.44,3.77-1.62,7.03-3.87,9.8-6.74,2.76-2.87,4.89-6.24,6.38-10.11,1.49-3.87,2.23-8.05,2.23-12.55s-.74-8.68-2.23-12.55c-1.49-3.87-3.61-7.24-6.38-10.11-2.77-2.87-6.03-5.1-9.8-6.69-3.77-1.59-7.9-2.39-12.39-2.39s-8.62.8-12.39,2.39c-3.77,1.59-7.02,3.82-9.75,6.69-2.73,2.87-4.86,6.24-6.38,10.11-1.52,3.87-2.28,8.05-2.28,12.55s.76,8.68,2.28,12.55c1.52,3.87,3.65,7.24,6.38,10.11,2.73,2.87,5.98,5.12,9.75,6.74,3.77,1.62,7.9,2.44,12.39,2.44Z"/>
  </g>
</svg>