<?xml version="1.0" encoding="UTF-8"?>
<svg id="Capa_1" data-name="Capa 1" xmlns="http://www.w3.org/2000/svg" viewBox="0 0 149 143">
  <defs>
    <style>
      .cls-1 {
        fill: #0d025a;
      }

      .cls-2 {
        fill: #dfff7d;
      }
    </style>
  </defs>
  <circle class="cls-2" cx="74.5" cy="71.5" r="63"/>
  <g>
    <path class="cls-1" d="M111.99,43.29c11.66,11.55,8.12,27.56.34,40.13-9.04,14.6-23.48,26.57-37.37,36.36-.74.2-1.33-.33-1.91-.68-2.15-1.31-4.52-3.21-6.54-4.75-15.64-11.93-39.67-34.81-36.76-56.44,2.64-19.6,26.09-28.75,41.43-16.2,1.21.99,2.2,2.33,3.43,3.24,9.62-11.19,26.84-12.09,37.4-1.64ZM53.04,38.69c-11.04.91-20.07,10.04-20.83,21.1-1.37,19.86,21.7,41.59,36.21,52.64,1.48,1.12,3.09,2.4,4.63,3.41.41.27,1.29,1,1.72.89,10.74-7.77,21.28-16.52,29.62-26.88,8.54-10.61,17.02-26.04,9.61-39.47-7.12-12.92-24.74-15.73-35.56-5.62-1.06.99-2,2.56-2.96,3.36-1.69,1.42-2.96-1.39-4.02-2.5-4.73-4.91-11.61-7.49-18.43-6.93Z"/>
    <path class="cls-1" d="M94.24,77.12c0,10.89-8.83,19.72-19.72,19.72s-19.72-8.83-19.72-19.72,8.83-19.72,19.72-19.72,19.72,8.83,19.72,19.72ZM91.56,77.12c0-9.41-7.63-17.04-17.04-17.04s-17.04,7.63-17.04,17.04,7.63,17.04,17.04,17.04,17.04-7.63,17.04-17.04Z"/>
    <path class="cls-1" d="M63.87,74.7c.59-.66,1.97-2.17,2.63-2.63.51-.35.72-.58,1.4-.49,1.08.14,4.29,4.21,4.61,4.21l7.75-7.76c.49-.49,1.07-.61,1.72-.37.45.16,3.66,3.3,4.03,3.82.34.47.72,1.04.5,1.63l-13.22,13.41c-.44.29-1.1.29-1.55,0l-9.24-9.53c-.2-.8.82-1.66,1.37-2.28ZM81.35,70.81"/>
  </g>
</svg>